<svg xmlns="http://www.w3.org/2000/svg" version="1.1" xmlns:xlink="http://www.w3.org/1999/xlink" xmlns:svgjs="http://svgjs.dev/svgjs" viewBox="0 0 1920 1080"><rect width="1920" height="1080" fill="#073b3a"></rect><g transform="matrix(-2.112515728529184e-16,-1.15,1.15,-2.112515728529184e-16,291.4541168212893,1589.3222343444825)"><path d="M0,-1080C0.4722747072662041,-1001.4190640423004,3.399263759852147,-761.9442053826349,2.8336482435972243,-608.5143842538027C2.2680327273423018,-455.0845631249706,-13.065612568165685,-324.0536157351064,-3.3936930975295354,-159.4210732270074C6.278226373106614,5.211469281091581,41.928457940628064,205.4303407912026,60.865165067414125,379.2808707947912C79.80187219420019,553.1314007983798,130.40307026687898,757.8487614094355,110.22654966318686,883.6821067945243C90.05002905949473,1009.5154521796131,-26.669691533396247,1009.2082789212448,-60.19395855473863,1134.2809431053242C-93.71822557608101,1259.3536072894037,-100.95137889065721,1463.164915749889,-90.91905246486743,1634.1180918990015C-80.88672603907766,1805.071268048114,-15.153175410811238,2072.3530153165,0,2160L 1920 2160 L 1920 -1080 Z" fill="url(&quot;#SvgjsLinearGradient1577&quot;)"></path><path d="M480,-1080C484.8586747794161,-990.6726648589113,511.485031677252,-771.0296147148865,509.1520486764967,-544.0359891534674C506.8190656757414,-317.04236359204833,485.79269925795177,60.513780075059685,466.0021019954682,281.96175336851445C446.2115047329846,503.4097266619692,371.58973913168404,562.846041695,390.40846510159525,784.6518506072612C409.22719107150647,1006.4576595195223,563.9825353318679,1383.571915276625,578.9144578149353,1612.7966068420815C593.8463802980027,1842.0212984075379,496.48574296915587,2068.7994344736803,480,2160L 1920 2160 L 1920 -1080 Z" fill="url(&quot;#SvgjsLinearGradient1578&quot;)"></path><path d="M960,-1080C948.6582157854177,-1006.380455513689,878.2569663113057,-775.6722440469939,891.9492947125065,-638.2827330821335C905.6416231137072,-500.8932221172731,1028.4343337088587,-397.78366891005203,1042.153970407204,-255.66293421083748C1055.8736071055494,-113.54219951162295,969.1404242668432,97.87699232430678,974.2671149025788,214.44167511315368C979.3938055383144,331.00635790200056,1094.5615036139277,306.8697752735702,1072.9141142216176,443.7251625222439C1051.2667248293076,580.5805497709176,867.3873765663251,893.8893476374864,844.3827785487179,1035.5739986051958C821.3781805311106,1177.2586495729051,933.1614115250037,1174.4862544015302,934.8865261159744,1293.8330683285005C936.6116407069452,1413.1798822554708,850.5478871138715,1607.2937268884343,854.7334660945425,1751.6548821670176C858.9190450752134,1896.016037445601,942.4555776824237,2091.9424803611696,960,2160L 1920 2160 L 1920 -1080 Z" fill="url(&quot;#SvgjsLinearGradient1579&quot;)"></path><path d="M1440,-1080C1452.0910500054108,-960.8610011782598,1530.2113944803918,-577.1514537460273,1512.546300032465,-365.16600706955916C1494.8812055845383,-153.18056039309104,1345.2062778129362,-16.619435498564116,1334.0094333124398,191.9126800588087C1322.8125888119434,400.4447956161815,1419.4205638105511,683.3577486505262,1445.365233029487,886.0266862746778C1471.3099022484228,1088.6956238988294,1490.5716541309687,1195.5974201828312,1489.6774486260542,1407.9263058037182C1488.7832431211398,1620.255191424605,1448.279574771009,2034.6543843006198,1440,2160L 1920 2160 L 1920 -1080 Z" fill="url(&quot;#SvgjsLinearGradient1580&quot;)"></path></g><defs><linearGradient x1="0.1" y1="0" x2="0" y2="1" id="SvgjsLinearGradient1577"><stop stop-color="#073b3a" offset="0"></stop><stop stop-color="#073b31" offset="0"></stop></linearGradient><linearGradient x1="0.1" y1="0" x2="0" y2="1" id="SvgjsLinearGradient1578"><stop stop-color="#129a97" offset="0"></stop><stop stop-color="#129a80" offset="0.25"></stop></linearGradient><linearGradient x1="0.1" y1="0" x2="0" y2="1" id="SvgjsLinearGradient1579"><stop stop-color="#2fe6e3" offset="0"></stop><stop stop-color="#2fe6c4" offset="0.5"></stop></linearGradient><linearGradient x1="0.1" y1="0" x2="0" y2="1" id="SvgjsLinearGradient1580"><stop stop-color="#8ef2f0" offset="0"></stop><stop stop-color="#8ef2df" offset="0.75"></stop></linearGradient></defs></svg>