<svg xmlns="http://www.w3.org/2000/svg" version="1.1" xmlns:xlink="http://www.w3.org/1999/xlink" xmlns:svgjs="http://svgjs.dev/svgjs" viewBox="0 0 1920 1080"><rect width="1920" height="1080" fill="#075a59"></rect><g transform="matrix(0.9959292143521045,0.5749999999999998,-0.5749999999999998,0.9959292143521045,314.36820477289734,-544.1871511544941)"><path d="M0,-1080C11.894106201360804,-989.0104837622694,65.39785893193783,-751.3705445648225,71.36463720816482,-534.0629025736164C77.33141548439181,-316.7552605824103,39.564828719240325,-15.696121914606834,35.80066965736194,223.84585194723627C32.03651059548355,463.38782580907935,57.71259511818679,682.6667320470771,48.779682836894494,903.1889405974422C39.8467705556022,1123.7111491478074,-9.666856890909438,1337.5105933490008,-17.796804030391854,1546.9791032494272C-25.926751169874272,1756.4476131498536,-2.966134005065309,2057.8298505415714,0,2160L 1920 2160 L 1920 -1080 Z" fill="url(&quot;#SvgjsLinearGradient1267&quot;)"></path><path d="M240,-1080C246.43740443590247,-1025.2585758085725,274.5672309392261,-873.6225646288975,278.6244266154148,-751.5514548514341C282.6816222916035,-629.4803450739706,253.7899059587436,-487.8892821743366,264.34317405713233,-347.5733413352192C274.8964421555211,-207.25740049610178,326.42117068533577,-39.33123020658668,341.94403520574724,90.3441901832705C357.4668997261587,220.0196105731277,368.67737759493446,274.1937147729865,357.48036117960123,430.47918100392377C346.283344764268,586.7646472348611,305.84068290202435,863.2233127843115,274.7619367137479,1028.0569875688943C243.68319052547145,1192.8906623534772,161.15199810437383,1299.6342080207987,171.0078840499425,1419.481229711421C180.86376999551118,1539.3282514020434,322.3985663954837,1623.7193226645313,333.89725238716,1747.1391177126277C345.39593837883626,1870.558912760724,255.64954206452666,2091.1898529521045,240,2160L 1920 2160 L 1920 -1080 Z" fill="url(&quot;#SvgjsLinearGradient1268&quot;)"></path><path d="M480,-1080C466.7344079231534,-973.226159826301,410.51868997178116,-624.2081306185644,400.4064475389205,-439.3569589578063C390.2942051060598,-254.50578729704813,406.8852396425295,-121.71347469701158,419.32654540283585,29.10702996454887C431.7678511631422,179.92753462610932,456.0880855018072,279.73753756818815,475.05428210075854,465.56606901155646C494.0204786997099,651.3946004549248,532.3932429003804,970.7826722667338,533.1237249965438,1144.0782186247586C533.8542070927073,1317.3737649827835,488.29112884382977,1336.0190502638318,479.4371746777391,1505.3393471597053C470.58322051164845,1674.6596440555788,479.9061957796232,2050.8898911932843,480,2160L 1920 2160 L 1920 -1080 Z" fill="url(&quot;#SvgjsLinearGradient1269&quot;)"></path><path d="M720,-1080C700.3463963923161,-958.2522698263941,595.4096384897206,-560.3867168815669,602.0783783538967,-349.51361895836465C608.7471182180728,-138.64052103516238,719.5968740632746,-13.710644555721473,760.012439185057,185.2385875392136C800.4280043068394,384.1878196341487,859.7267235186227,615.1360862768372,844.5717690845909,844.1817736112458C829.416814650559,1073.2274609456545,689.8446740949641,1340.209673814206,669.0827125808656,1559.512711545665C648.3207510667671,1778.815749277124,711.5137854301443,2059.918785257611,720,2160L 1920 2160 L 1920 -1080 Z" fill="url(&quot;#SvgjsLinearGradient1270&quot;)"></path><path d="M960,-1080C975.9110605925325,-1010.7906226539628,1076.523758356292,-863.5004789894185,1055.4663635551951,-664.7437359237771C1034.4089687540982,-465.98699285813564,860.4123344310024,-79.97922264450185,833.6556311934185,112.54045839384884C806.8989279558346,305.06013943219955,860.5135878595968,344.57155842294685,894.9261441296917,490.374350306327C929.3387003997866,636.1771421897072,1025.3238462110776,795.9522279345323,1040.130968813988,987.3572096941299C1054.9380914168983,1178.7621914537276,997.1240412161522,1443.3637758129341,983.7688797471543,1638.8042408639126C970.4137182781564,1834.244705914891,963.9614799578591,2073.1340401439857,960,2160L 1920 2160 L 1920 -1080 Z" fill="url(&quot;#SvgjsLinearGradient1271&quot;)"></path><path d="M1200,-1080C1198.2385635990352,-984.3024070137272,1185.924611653058,-715.6223336533212,1189.4313815942105,-505.81444208236377C1192.938151535363,-296.0065505114064,1213.865358167887,-65.5381314668441,1221.0406196469153,178.84734942574445C1228.2158811259435,423.232830318333,1219.5838226030426,737.4078788658383,1232.48295046838,960.4984432731676C1245.3820783337176,1183.589007680497,1303.849211917004,1317.4738097485815,1298.4353868389405,1517.3907358697202C1293.0215617608771,1717.3076619908588,1216.40589780649,2052.8984559782866,1200,2160L 1920 2160 L 1920 -1080 Z" fill="url(&quot;#SvgjsLinearGradient1272&quot;)"></path><path d="M1440,-1080C1449.9306379409609,-1009.2203220346213,1478.5142959930242,-810.0763130854996,1499.5838276457653,-655.3219322077275C1520.6533592985063,-500.56755132995545,1576.5697185243748,-304.4720722633675,1566.4171899164462,-151.4737147333675C1556.2646613085176,1.5246427966325484,1475.8757725934681,108.35321036878341,1438.668655998193,262.6682129722728C1401.4615394029177,416.9832155757622,1362.454656469259,628.7985718284621,1343.1744903447948,774.4163008875687C1323.8943242203306,920.0340299466753,1311.6739004099663,993.1094503108553,1322.9876592514083,1136.3745873269124C1334.3014180928503,1279.6397243429697,1391.5549866020156,1463.402887538397,1411.0570433934474,1634.0071229839116C1430.5591001848793,1804.6113584294262,1435.176173898908,2072.3345204973184,1440,2160L 1920 2160 L 1920 -1080 Z" fill="url(&quot;#SvgjsLinearGradient1273&quot;)"></path><path d="M1680,-1080C1661.5801321462698,-969.4260552776218,1559.4366692346587,-612.6697529545746,1569.480792877619,-416.55633166573045C1579.5249165205794,-220.4429103768863,1714.2977887474785,-68.49280437161349,1740.264741857762,96.68052773306499C1766.2316949680453,261.85385983774347,1726.464718848848,397.27810365738037,1725.2825115393189,574.4836609623404C1724.1003042297898,751.6892182673005,1723.3199281391396,979.6011298133182,1733.1714980005875,1159.9138715628253C1743.0230678620353,1340.2266133123326,1793.2538470414372,1489.6790900531878,1784.391930708006,1656.3601114593837C1775.5300143745746,1823.0411328655796,1697.398655118001,2076.060018576564,1680,2160L 1920 2160 L 1920 -1080 Z" fill="url(&quot;#SvgjsLinearGradient1274&quot;)"></path></g><defs><linearGradient x1="0.1" y1="0" x2="0" y2="1" id="SvgjsLinearGradient1267"><stop stop-color="#075a59" offset="0"></stop><stop stop-color="#075a4b" offset="0"></stop></linearGradient><linearGradient x1="0.1" y1="0" x2="0" y2="1" id="SvgjsLinearGradient1268"><stop stop-color="#0a8685" offset="0"></stop><stop stop-color="#0a8670" offset="0.125"></stop></linearGradient><linearGradient x1="0.1" y1="0" x2="0" y2="1" id="SvgjsLinearGradient1269"><stop stop-color="#0eb2b0" offset="0"></stop><stop stop-color="#0eb295" offset="0.25"></stop></linearGradient><linearGradient x1="0.1" y1="0" x2="0" y2="1" id="SvgjsLinearGradient1270"><stop stop-color="#11dedc" offset="0"></stop><stop stop-color="#11deba" offset="0.375"></stop></linearGradient><linearGradient x1="0.1" y1="0" x2="0" y2="1" id="SvgjsLinearGradient1271"><stop stop-color="#30efed" offset="0"></stop><stop stop-color="#30efcd" offset="0.5"></stop></linearGradient><linearGradient x1="0.1" y1="0" x2="0" y2="1" id="SvgjsLinearGradient1272"><stop stop-color="#5cf2f1" offset="0"></stop><stop stop-color="#5cf2d8" offset="0.625"></stop></linearGradient><linearGradient x1="0.1" y1="0" x2="0" y2="1" id="SvgjsLinearGradient1273"><stop stop-color="#88f6f4" offset="0"></stop><stop stop-color="#88f6e2" offset="0.75"></stop></linearGradient><linearGradient x1="0.1" y1="0" x2="0" y2="1" id="SvgjsLinearGradient1274"><stop stop-color="#b4f9f8" offset="0"></stop><stop stop-color="#b4f9ec" offset="0.875"></stop></linearGradient></defs></svg>