<svg xmlns="http://www.w3.org/2000/svg" version="1.1" xmlns:xlink="http://www.w3.org/1999/xlink" xmlns:svgjs="http://svgjs.dev/svgjs" viewBox="0 0 1920 1080"><rect width="1920" height="1080" fill="#075a59"></rect><g transform="matrix(1.1108147002324285,0.29764190186789885,-0.29764190186789885,1.1108147002324285,61.0617868654831,-327.5339580286212)"><path d="M0,-1080C7.428564757194143,-1016.1990244012093,46.08687264365412,-812.7184489695759,44.57138854316486,-697.1941464072553C43.0559044426756,-581.6698438449347,8.997356314237965,-521.5203628334765,-9.092904602935562,-386.8541846260766C-27.18316552010909,-252.18800641867662,-84.82020404605294,-40.15102051595687,-63.97017695987631,110.80292283714431C-43.12014987369969,261.7568661902455,101.65060002837448,374.2379132506446,116.00725791412418,518.8694754925306C130.36391579987387,663.5010377344165,55.34976160937858,833.6830393118057,22.169770354621846,978.5922962884597C-11.01022090013489,1123.5015532651137,-59.83763034378245,1275.51908205698,-83.07268961441622,1388.3250173524546C-106.30774888504999,1501.130952647929,-131.08603353825015,1526.8154109533816,-117.24058526918077,1655.427908061306C-103.3951370001114,1784.0404051692303,-19.54009754486346,2075.904651343551,0,2160L 1920 2160 L 1920 -1080 Z" fill="url(&quot;#SvgjsLinearGradient1410&quot;)"></path><path d="M160,-1080C146.96436355231577,-999.5356451585428,99.58099951193635,-756.3575442357456,81.7861813138947,-597.2138709512569C63.99136311585305,-438.0701976667682,43.324515847043784,-325.81851144065223,53.23109081175011,-125.1379602930678C63.13766577645643,75.54259085451662,104.51054328794427,408.13605309503646,141.22563110213264,606.8694359342496C177.940718916321,805.6028187734628,256.6587085832405,893.8014778152228,273.5216176968803,1067.2623367422111C290.3845268105201,1240.7231956691994,261.3233554001181,1465.5116456198814,242.4030857839714,1647.6345894961796C223.48281616782467,1829.7575333724778,173.7338476306619,2074.60576491603,160,2160L 1920 2160 L 1920 -1080 Z" fill="url(&quot;#SvgjsLinearGradient1411&quot;)"></path><path d="M320,-1080C301.48443124152664,-982.2047924124478,215.3443529675232,-691.7577170181949,208.90658744915993,-493.2287544746867C202.46882193079665,-294.6997919311785,255.74208438611487,-75.67230627167388,281.3734068898204,111.1737752610494C307.0047293935259,298.01985679377265,340.91228658169854,483.00825298151625,362.694522471393,627.847734721653C384.47675836108743,772.6872164617896,431.59928354144074,824.4561294542652,412.0668222279871,980.2106657018696C392.5343609145334,1135.965201949474,260.8442249620021,1365.743396490924,245.49975459067093,1562.374952207279C230.15528421933976,1759.006507923634,307.5832924317785,2060.3958253678798,320,2160L 1920 2160 L 1920 -1080 Z" fill="url(&quot;#SvgjsLinearGradient1412&quot;)"></path><path d="M480,-1080C461.58376201151896,-1004.8615228017715,367.232070717859,-791.8869494087745,369.5025720691138,-629.1691368106285C371.7730734203686,-466.4513242124825,480.72255892828645,-310.9262981585845,493.6230081075286,-103.69312441112413C506.5234572867708,103.54004933633618,437.503205204657,401.1418923454173,446.90526714456684,614.2299056741333C456.3073290844767,827.3179190028493,550.4741387284486,1018.5006904463842,550.0353797469878,1174.8349555611717C549.5966207655271,1331.1692206759592,455.94527654696725,1388.0413222897205,444.2727132558026,1552.2354963628586C432.600149964638,1716.4296704359967,474.04545220930044,2058.7059160604763,480,2160L 1920 2160 L 1920 -1080 Z" fill="url(&quot;#SvgjsLinearGradient1413&quot;)"></path><path d="M640,-1080C649.062782299173,-988.7677881562015,678.8600833327507,-669.7760546013004,694.3766937950379,-532.6067289372091C709.8933042573251,-395.43740327311787,726.6681411979448,-388.1910438305746,733.0996627737231,-256.98404601545235C739.5311843495015,-125.77704820033014,750.3362296769023,102.71254952308638,732.9658232497081,254.63525795352405C715.5954168225139,406.5579663839617,652.8424896000924,511.791205959668,628.8772242105579,654.5522045671736C604.9119588210233,797.3132031746792,573.3772403510015,917.7004936111808,589.1742309125005,1111.2012495985578C604.9712214739995,1304.7020055859348,715.1882060649688,1640.7569487578614,723.659167579552,1815.5567404914352C732.1301290941352,1990.356532225009,653.943194596592,2102.592790081906,640,2160L 1920 2160 L 1920 -1080 Z" fill="url(&quot;#SvgjsLinearGradient1414&quot;)"></path><path d="M800,-1080C782.1320817726578,-982.417330431904,686.3933158698698,-716.9761315225874,692.7924906359468,-494.50398259142406C699.1916654020239,-272.03183366026076,839.016403090202,9.654524547008435,838.3950485964624,254.83289358697988C837.7736941027229,500.0112626269513,683.3702911638055,781.7334381346918,689.0643636735098,976.5662316484045C694.758436183214,1171.3990251621171,854.0702109336062,1226.5906932773235,872.5594836546879,1423.8296546692561C891.0487563757697,1621.0686160611888,812.0932472757813,2037.304942444876,800,2160L 1920 2160 L 1920 -1080 Z" fill="url(&quot;#SvgjsLinearGradient1415&quot;)"></path><path d="M960,-1080C947.9731343551126,-1005.0313036763353,899.911105080719,-802.1589239445926,887.838806130676,-630.1878220580114C875.7665071806329,-458.2167201714302,863.9098286569197,-203.95102974047035,887.5662062997412,-48.17338868051257C911.2225839425628,107.6042523794452,1017.3764128010807,154.88284889056038,1029.7770719876053,304.47802430173516C1042.1777311741298,454.07319971290997,978.5012126115842,675.8043581322408,961.9701614188887,849.3976637865361C945.4391102261932,1022.9909694408313,936.68518335017,1222.2815759897856,930.5907648314324,1346.0378582275068C924.4963463126948,1469.794140465228,920.502111111702,1456.2750002507819,925.4036503064633,1591.9353572128641C930.3051895012246,1727.5957141749464,954.2339417177438,2065.3225595354775,960,2160L 1920 2160 L 1920 -1080 Z" fill="url(&quot;#SvgjsLinearGradient1416&quot;)"></path><path d="M1120,-1080C1105.0579011853622,-964.8369412688295,1011.4567846958846,-612.2426403568563,1030.3474071121734,-389.0216476129771C1049.2380295284622,-165.80065486909797,1213.1513758333865,71.10879245565022,1233.3437344977326,259.32595646327485C1253.5360931620787,447.54312047089945,1173.2740176608634,534.3883611952853,1151.5015590982503,740.2813364327706C1129.7291005356371,946.1743116702559,1107.959242971762,1258.0640306269818,1102.7089831220537,1494.6838078881867C1097.4587232723454,1731.3035851493917,1117.1181638536757,2049.1139679813646,1120,2160L 1920 2160 L 1920 -1080 Z" fill="url(&quot;#SvgjsLinearGradient1417&quot;)"></path><path d="M1280,-1080C1299.373659378973,-986.3449881062506,1392.377396881979,-717.8117480331003,1396.2419562738373,-518.0699286375041C1400.1065156656957,-318.3281092419078,1324.9513102630071,-108.50253638078661,1303.18735635115,118.45091637357785C1281.4234024392927,345.40436912794235,1260.7936983584,615.271357305292,1265.6582328026934,843.6507878886828C1270.5227672469869,1072.0302184720736,1329.9842684840257,1269.3359645220366,1332.37456301691,1488.7274998739229C1334.7648575497944,1708.119035225809,1288.7290938361516,2048.121249978987,1280,2160L 1920 2160 L 1920 -1080 Z" fill="url(&quot;#SvgjsLinearGradient1418&quot;)"></path><path d="M1440,-1080C1430.3187079394545,-981.5888856020553,1402.7235220709017,-650.8645043308601,1381.9122476367274,-489.53331361233154C1361.1009732025532,-328.202122893803,1301.8707258435204,-298.12092821687264,1315.132353394954,-112.01285568882867C1328.3939809463875,74.09521683921531,1442.6146410396818,411.9603744877535,1461.4820129453287,627.1151215559324C1480.3493848509756,842.2698686241114,1429.5709878224402,1029.271314211277,1428.3365848288354,1178.9156267202447C1427.1021818352306,1328.5599392292124,1452.1316924551725,1361.4669343964465,1454.0755949836998,1524.9809966097391C1456.0194975122272,1688.4950588230317,1442.3459324972832,2054.1634994349565,1440,2160L 1920 2160 L 1920 -1080 Z" fill="url(&quot;#SvgjsLinearGradient1419&quot;)"></path><path d="M1600,-1080C1589.3014794603653,-971.2099563293709,1535.8304843862477,-639.3403734264559,1535.8088767621916,-427.2597379762259C1535.7872691381356,-215.17910252599583,1603.9691451696206,-24.147274916813416,1599.8703542556636,192.4838127013805C1595.7715633417067,409.1149003195744,1505.4979138869182,663.9214689558564,1511.2161312784501,872.5267877329377C1516.934348669982,1081.132106510019,1619.3823471512633,1229.5368566526909,1634.179658604855,1444.115725363868C1648.9769700584466,1658.6945940750452,1605.6966097674758,2040.6859542273114,1600,2160L 1920 2160 L 1920 -1080 Z" fill="url(&quot;#SvgjsLinearGradient1420&quot;)"></path><path d="M1760,-1080C1747.0618571026887,-1014.9184129582103,1675.2099644676343,-807.6920713384557,1682.3711426161321,-689.5104777492618C1689.53232076463,-571.3288841600679,1777.4944539486653,-525.0281780189873,1802.9670688909869,-370.91043846483643C1828.4396838333084,-216.7926989106855,1850.138820895469,86.49593672948885,1835.206832270062,235.19595957564383C1820.274843644655,383.8959824217988,1728.3705553248492,396.97505466621334,1713.375137138544,521.2896986120934C1698.3797189522388,645.6043425579734,1741.319170929339,858.9399121109421,1745.2343231522316,981.0838232509241C1749.1494753751242,1103.227734390906,1741.8387331396375,1116.658297334077,1736.8660504758993,1254.1531654519852C1731.8933678121612,1391.6480335698934,1711.5425689157853,1655.0785595337047,1715.398227169802,1806.0530319583738C1719.253885423819,1957.027504383043,1752.566371194967,2101.008838659729,1760,2160L 1920 2160 L 1920 -1080 Z" fill="url(&quot;#SvgjsLinearGradient1421&quot;)"></path></g><defs><linearGradient x1="0.1" y1="0" x2="0" y2="1" id="SvgjsLinearGradient1410"><stop stop-color="#075a59" offset="0"></stop><stop stop-color="#075a4b" offset="0"></stop></linearGradient><linearGradient x1="0.1" y1="0" x2="0" y2="1" id="SvgjsLinearGradient1411"><stop stop-color="#097776" offset="0"></stop><stop stop-color="#097764" offset="0.08333333333333333"></stop></linearGradient><linearGradient x1="0.1" y1="0" x2="0" y2="1" id="SvgjsLinearGradient1412"><stop stop-color="#0c9593" offset="0"></stop><stop stop-color="#0c957c" offset="0.16666666666666666"></stop></linearGradient><linearGradient x1="0.1" y1="0" x2="0" y2="1" id="SvgjsLinearGradient1413"><stop stop-color="#0eb2b0" offset="0"></stop><stop stop-color="#0eb295" offset="0.25"></stop></linearGradient><linearGradient x1="0.1" y1="0" x2="0" y2="1" id="SvgjsLinearGradient1414"><stop stop-color="#10cfcd" offset="0"></stop><stop stop-color="#10cfad" offset="0.3333333333333333"></stop></linearGradient><linearGradient x1="0.1" y1="0" x2="0" y2="1" id="SvgjsLinearGradient1415"><stop stop-color="#13edea" offset="0"></stop><stop stop-color="#13edc6" offset="0.4166666666666667"></stop></linearGradient><linearGradient x1="0.1" y1="0" x2="0" y2="1" id="SvgjsLinearGradient1416"><stop stop-color="#30efed" offset="0"></stop><stop stop-color="#30efcd" offset="0.5"></stop></linearGradient><linearGradient x1="0.1" y1="0" x2="0" y2="1" id="SvgjsLinearGradient1417"><stop stop-color="#4df1ef" offset="0"></stop><stop stop-color="#4df1d4" offset="0.5833333333333334"></stop></linearGradient><linearGradient x1="0.1" y1="0" x2="0" y2="1" id="SvgjsLinearGradient1418"><stop stop-color="#6bf3f2" offset="0"></stop><stop stop-color="#6bf3db" offset="0.6666666666666666"></stop></linearGradient><linearGradient x1="0.1" y1="0" x2="0" y2="1" id="SvgjsLinearGradient1419"><stop stop-color="#88f6f4" offset="0"></stop><stop stop-color="#88f6e2" offset="0.75"></stop></linearGradient><linearGradient x1="0.1" y1="0" x2="0" y2="1" id="SvgjsLinearGradient1420"><stop stop-color="#a5f8f7" offset="0"></stop><stop stop-color="#a5f8e9" offset="0.8333333333333334"></stop></linearGradient><linearGradient x1="0.1" y1="0" x2="0" y2="1" id="SvgjsLinearGradient1421"><stop stop-color="#c3fafa" offset="0"></stop><stop stop-color="#c3faf1" offset="0.9166666666666666"></stop></linearGradient></defs></svg>