<svg xmlns="http://www.w3.org/2000/svg" version="1.1" xmlns:xlink="http://www.w3.org/1999/xlink" xmlns:svgjs="http://svgjs.dev/svgjs" viewBox="0 0 1920 1080"><rect width="1920" height="1080" fill="#075a59"></rect><g transform="matrix(0.5750000000000001,0.9959292143521044,-0.9959292143521044,0.5750000000000001,932.777392777419,-696.0711904805162)"><path d="M0,-1080C15.654903565031304,-999.8532842902433,80.57100657509106,-754.5097641816611,93.92942139018783,-599.1197057414597C107.28783620528459,-443.7296473012583,90.4867939988959,-297.00564319428383,80.15048889058056,-147.65964935879137C69.81418378226522,1.686344476701123,34.85623452232415,146.88980268328024,31.911590740295736,296.95625727149525C28.966946958267325,447.0227118597103,78.01618016071089,582.4481997607593,62.48262619841009,752.7390781704987C46.94907223610928,923.0299565802381,-60.82653952832955,1144.3622709525062,-61.289733033509094,1318.7015277299315C-61.75292653868864,1493.0407845073569,49.48850966174796,1658.5582067900395,59.70346516733281,1798.774618835051C69.91842067291766,1938.9910308800622,9.950577527888802,2099.7957698058417,0,2160L 1920 2160 L 1920 -1080 Z" fill="url(&quot;#SvgjsLinearGradient1223&quot;)"></path><path d="M160,-1080C152.65859926601678,-977.194833342546,121.38901803252898,-635.3319656117038,115.95159559610073,-463.169000055276C110.51417315967248,-291.0060344988482,118.82546559884321,-203.0577961780977,127.3754653814305,-47.02220666143323C135.9254651640178,109.01338285523126,152.23163320412647,272.21262507432493,167.25159429162449,473.04453704471086C182.2715553791225,673.8764490150968,221.65596788514554,950.4916031328872,217.49523190641864,1157.9692651608823C213.33449592769173,1365.4469271888772,151.86971707033283,1550.9053867394948,142.28717841926306,1717.910509212681C132.7046397681933,1884.9156316858673,157.04786306987717,2086.3184182021137,160,2160L 1920 2160 L 1920 -1080 Z" fill="url(&quot;#SvgjsLinearGradient1224&quot;)"></path><path d="M320,-1080C332.43697965581185,-986.8904122862808,410.86318391872464,-696.6600897683294,394.6218779348711,-521.3424737176852C378.3805719510176,-346.0248576670409,219.19413403784012,-215.59103001939593,222.55216409687873,-28.094303696134745C225.91019415591734,159.40242262712644,388.96390622631526,399.1012526693538,414.77005828910274,603.637884221882C440.5762103518902,808.1745157744102,373.19969430261153,1027.3689448789892,377.3890764736037,1199.1254856190346C381.5784586445959,1370.88202635908,449.47119739399,1474.0313762653277,439.90635131505604,1634.1771286621552C430.3415052361221,1794.3228810589826,339.9843918858427,2072.362854777026,320,2160L 1920 2160 L 1920 -1080 Z" fill="url(&quot;#SvgjsLinearGradient1225&quot;)"></path><path d="M480,-1080C475.28181333591084,-1001.412416636047,446.2422861102578,-770.9759232526891,451.6908800154649,-608.474499816282C457.13947392067206,-445.9730763798749,500.63401198764655,-307.55830882613094,512.6915634312427,-104.9914593815573C524.7491148748388,97.57539006301634,528.6394412546967,416.37529893776457,524.0361886770417,606.9265968511598C519.4329360993866,797.4778947645551,484.3000054902534,856.9483105148728,485.0720479653119,1038.3163280988144C485.84409044037045,1219.6843456827562,529.5137848549449,1508.1874237046122,528.6684435273929,1695.1347023548099C527.823102199841,1882.0819810050075,488.1114072545655,2082.5224503924683,480,2160L 1920 2160 L 1920 -1080 Z" fill="url(&quot;#SvgjsLinearGradient1226&quot;)"></path><path d="M640,-1080C629.8795779987587,-1017.8803240353723,583.383320735321,-849.74060116192,579.2774679925521,-707.2819442122337C575.1716152497833,-564.8232872625474,595.5428283890199,-385.76891552684583,615.3648835433866,-225.24805830188222C635.1869386977532,-64.72720107691865,683.7778170570252,102.62906977552805,698.2097989187523,255.84319913754763C712.6417807804794,409.05732849956723,696.7903811881897,537.1477737665128,701.9567747137492,694.0367178702352C707.1231682393086,850.9256619739575,740.2959126401796,1041.3571194201875,729.2081600721092,1197.1768637598814C718.1204075040388,1352.9966080995753,650.2982859840113,1468.4846612017118,635.4302593053264,1628.955183908398C620.5622326266416,1789.4257066150844,639.2383765508878,2071.4925306513996,640,2160L 1920 2160 L 1920 -1080 Z" fill="url(&quot;#SvgjsLinearGradient1227&quot;)"></path><path d="M800,-1080C784.9086538425706,-996.3696063713139,726.959062628164,-730.4067082628869,709.4519230554235,-578.2176382278835C691.9447834826831,-426.02856819288013,673.4850970552359,-325.1567361588966,694.9571625635574,-166.8655797899795C716.4292280718789,-8.574423421062448,835.0486394025548,203.67634140106625,838.2843161053527,371.5292999856189C841.5199928081505,539.3822585701715,707.0252488493459,691.9405527284742,714.3712227803442,840.2521717173363C721.7171967113425,988.5637907061983,878.4528217714555,1127.212082510979,882.3601596913427,1261.3990139187913C886.2674976112298,1395.5859453266037,751.5419435815577,1495.6069291506756,737.8152502996672,1645.3737601642104C724.0885570177768,1795.1405911777451,789.6358750499445,2074.2289600273684,800,2160L 1920 2160 L 1920 -1080 Z" fill="url(&quot;#SvgjsLinearGradient1228&quot;)"></path><path d="M960,-1080C977.1604507499786,-976.2649946500452,1056.1909248026288,-680.5504046655847,1062.962704499872,-457.58996790027135C1069.734484197115,-234.62953113495809,1020.8447110269916,27.047205522659823,1000.6306781834583,257.76262059187957C980.4166453399249,488.4780356610993,959.2626623023627,716.4917590175717,941.6785074386717,926.7025225150471C924.0943525749806,1136.9132860125226,892.072166907757,1313.4776219959072,895.1257490013118,1519.0272015767325C898.1793310948665,1724.576781157558,949.1876248335519,2053.1712002627887,960,2160L 1920 2160 L 1920 -1080 Z" fill="url(&quot;#SvgjsLinearGradient1229&quot;)"></path><path d="M1120,-1080C1139.8055218173258,-961.9989065599748,1231.5555360358687,-624.8532734928774,1238.8331309039545,-371.99343935984854C1246.1107257720403,-119.1336052268197,1175.788648100796,140.22492371063578,1163.6655692085146,437.1590047981731C1151.5424903162332,734.0930858857105,1173.372252418352,1122.4708812984045,1166.0946575502662,1409.6110471653756C1158.8170626821804,1696.7512130323466,1127.6824429250444,2034.9351745275626,1120,2160L 1920 2160 L 1920 -1080 Z" fill="url(&quot;#SvgjsLinearGradient1230&quot;)"></path><path d="M1280,-1080C1266.438209286314,-990.9976539303735,1190.3034791505247,-709.8929023576414,1198.6292557178845,-545.9859235822411C1206.9550322852442,-382.0789448068407,1326.0913505919357,-287.23693407441107,1329.954659404159,-96.55812734759766C1333.8179682163823,94.12067937921574,1244.267094698246,401.2029652108482,1221.8091085912242,598.0869167786395C1199.3511224842025,794.9708683464308,1191.6754534682525,904.376675934685,1195.2067427620286,1084.7455820591501C1198.7380320558048,1265.1144881836153,1228.8646348142186,1501.0912838686222,1242.9968443538805,1680.3003535254306C1257.1290538935425,1859.509423182239,1273.8328073923135,2080.050058920905,1280,2160L 1920 2160 L 1920 -1080 Z" fill="url(&quot;#SvgjsLinearGradient1231&quot;)"></path><path d="M1440,-1080C1432.8020751710824,-1008.5637640371219,1377.7509287770406,-787.2063542585439,1396.8124510264936,-651.3825842227315C1415.8739732759466,-515.558814186919,1559.3131098779727,-419.33274470564015,1554.3691334967184,-265.057379785125C1549.4251571154641,-110.78201486460986,1376.4531214987,83.6008418928835,1367.1485927389683,274.26960530035944C1357.8440639792366,464.93836870783537,1474.4209780896967,699.7992271410376,1498.5419609383275,878.9552006597307C1522.6629437869583,1058.1111741784239,1512.9406802391288,1203.5447108107269,1511.8744898307525,1349.2054464125183C1510.8082994223762,1494.8661820143097,1504.123900126528,1617.7871886725663,1492.1448184880694,1752.91961427048C1480.1657368496108,1888.0520398683936,1448.690803081345,2092.15326904508,1440,2160L 1920 2160 L 1920 -1080 Z" fill="url(&quot;#SvgjsLinearGradient1232&quot;)"></path><path d="M1600,-1080C1617.4091866843892,-980.3646509673549,1691.7178482596855,-662.6719524275194,1704.4551201063346,-482.1879058041296C1717.1923919529836,-301.70385918073987,1678.559410306245,-184.17753113077478,1676.4236310798938,2.9042797403382394C1674.2878518535426,189.98609061145126,1723.4492047014535,480.35753823183927,1691.6404447482275,640.3029594225485C1659.8316847950016,800.2483806132577,1505.6463224684646,809.3590199601853,1485.5710713605376,962.5768068845935C1465.4958202526107,1115.7945938090015,1552.1174499940882,1360.0391487830964,1571.1889381006654,1559.6096809689975C1590.2604262072425,1759.1802131548986,1595.1981563501108,2059.934946828166,1600,2160L 1920 2160 L 1920 -1080 Z" fill="url(&quot;#SvgjsLinearGradient1233&quot;)"></path><path d="M1760,-1080C1743.5821214540056,-991.354810099453,1647.933417020423,-762.1621249051407,1661.4927287240332,-548.1288605967175C1675.0520404276435,-334.09559628829425,1827.9177910121598,-50.84237560795873,1841.355870221662,204.1995858505396C1854.793949431164,459.2415473090379,1750.7217379835,761.8189411859001,1742.1212039810455,982.1229081542724C1733.520669978591,1202.4268751226446,1786.7728668704426,1329.7105390198185,1789.752666206935,1526.023387660773C1792.7324655434272,1722.3362363017277,1764.958777701156,2054.3372312767956,1760,2160L 1920 2160 L 1920 -1080 Z" fill="url(&quot;#SvgjsLinearGradient1234&quot;)"></path></g><defs><linearGradient x1="0.1" y1="0" x2="0" y2="1" id="SvgjsLinearGradient1223"><stop stop-color="#075a59" offset="0"></stop><stop stop-color="#075a4b" offset="0"></stop></linearGradient><linearGradient x1="0.1" y1="0" x2="0" y2="1" id="SvgjsLinearGradient1224"><stop stop-color="#097776" offset="0"></stop><stop stop-color="#097764" offset="0.08333333333333333"></stop></linearGradient><linearGradient x1="0.1" y1="0" x2="0" y2="1" id="SvgjsLinearGradient1225"><stop stop-color="#0c9593" offset="0"></stop><stop stop-color="#0c957c" offset="0.16666666666666666"></stop></linearGradient><linearGradient x1="0.1" y1="0" x2="0" y2="1" id="SvgjsLinearGradient1226"><stop stop-color="#0eb2b0" offset="0"></stop><stop stop-color="#0eb295" offset="0.25"></stop></linearGradient><linearGradient x1="0.1" y1="0" x2="0" y2="1" id="SvgjsLinearGradient1227"><stop stop-color="#10cfcd" offset="0"></stop><stop stop-color="#10cfad" offset="0.3333333333333333"></stop></linearGradient><linearGradient x1="0.1" y1="0" x2="0" y2="1" id="SvgjsLinearGradient1228"><stop stop-color="#13edea" offset="0"></stop><stop stop-color="#13edc6" offset="0.4166666666666667"></stop></linearGradient><linearGradient x1="0.1" y1="0" x2="0" y2="1" id="SvgjsLinearGradient1229"><stop stop-color="#30efed" offset="0"></stop><stop stop-color="#30efcd" offset="0.5"></stop></linearGradient><linearGradient x1="0.1" y1="0" x2="0" y2="1" id="SvgjsLinearGradient1230"><stop stop-color="#4df1ef" offset="0"></stop><stop stop-color="#4df1d4" offset="0.5833333333333334"></stop></linearGradient><linearGradient x1="0.1" y1="0" x2="0" y2="1" id="SvgjsLinearGradient1231"><stop stop-color="#6bf3f2" offset="0"></stop><stop stop-color="#6bf3db" offset="0.6666666666666666"></stop></linearGradient><linearGradient x1="0.1" y1="0" x2="0" y2="1" id="SvgjsLinearGradient1232"><stop stop-color="#88f6f4" offset="0"></stop><stop stop-color="#88f6e2" offset="0.75"></stop></linearGradient><linearGradient x1="0.1" y1="0" x2="0" y2="1" id="SvgjsLinearGradient1233"><stop stop-color="#a5f8f7" offset="0"></stop><stop stop-color="#a5f8e9" offset="0.8333333333333334"></stop></linearGradient><linearGradient x1="0.1" y1="0" x2="0" y2="1" id="SvgjsLinearGradient1234"><stop stop-color="#c3fafa" offset="0"></stop><stop stop-color="#c3faf1" offset="0.9166666666666666"></stop></linearGradient></defs></svg>